<svg width="146" height="20" viewBox="0 0 146 20" fill="none" xmlns="http://www.w3.org/2000/svg">
<g clip-path="url(#clip0_40_2)">
<path d="M47.8578 0.486849V11.4507C47.8578 13.8732 49.2618 15.3036 51.6982 15.3036C54.4237 15.3036 55.9903 13.7142 55.9903 10.6553V0.486849H61.0703V19.3545H55.994V17.1688C54.7974 18.9562 52.8558 19.8304 50.1721 19.8304C45.6296 19.8318 42.7807 16.654 42.7807 12.0458V0.486849H47.8578ZM102.411 0.129863C108.194 0.140822 112.272 4.59616 112.258 9.84411C112.259 10.363 112.217 10.8812 112.132 11.3937L97.184 11.3668C97.757 13.6315 99.6947 15.2636 102.627 15.2696C104.402 15.2696 106.304 14.6405 107.462 13.2126L110.926 15.8838C109.145 18.3041 106.003 19.7285 102.66 19.7222C96.7584 19.703 92.2239 15.4444 92.2339 9.92301C92.2453 4.63973 96.1765 0.118904 102.411 0.129863ZM134.643 0.129863C137.74 0.129863 139.516 1.04301 140.713 2.79178L141.189 0.484384H145.833V19.3545H141.189L140.589 17.4115C139.227 18.8419 137.533 19.7186 134.643 19.7186C130.183 19.7126 125.103 15.9386 125.103 10.0603C125.103 4.14192 130.1 0.129863 134.643 0.129863ZM30.5729 0.129863C36.3951 0.129863 41.0205 4.50137 41.0205 9.90137C41.0205 15.2636 36.3951 19.7126 30.5729 19.7126C24.7911 19.7126 20.1669 15.2586 20.1669 9.90137C20.1669 4.49863 24.7911 0.129863 30.5729 0.129863ZM82.8051 0.00958904C86.0798 0.00958904 88.9808 1.40493 90.5562 3.99616L86.0824 6.27288C85.4196 4.99671 84.176 4.27918 82.6006 4.27918C81.0682 4.27918 80.3206 4.79753 80.3206 5.67425C80.3206 8.62493 91.0145 6.75151 91.0145 13.8101C91.0145 17.4786 87.9065 19.7101 82.8912 19.7101C78.6215 19.7066 75.6371 18.3512 74.1463 15.2416L78.6608 12.9685C79.4068 14.5241 80.8988 15.4408 83.0133 15.4408C84.9613 15.4408 85.7073 14.8436 85.7073 14.0055C85.7073 10.9699 75.0136 12.8096 75.0136 5.86986C75.0136 2.04247 78.4954 0.00958904 82.8051 0.00958904ZM10.406 0.089863C12.1444 0.0782119 13.8586 0.482773 15.394 1.26709C16.9294 2.05142 18.2378 3.19085 19.2013 4.58274L14.8662 7.00164C14.3646 6.31212 13.6969 5.74963 12.9202 5.36223C12.1435 4.97483 11.2809 4.77403 10.406 4.77699C7.43294 4.77699 4.9965 7.16055 4.9965 9.90137C4.9965 12.6419 7.43294 15.0255 10.406 15.0255C11.3221 15.0312 12.2245 14.811 13.0269 14.3858C13.8294 13.9607 14.5052 13.3448 14.9898 12.597L19.2822 15.0595C18.3305 16.4922 17.0172 17.6698 15.4647 18.4826C13.9122 19.2954 12.171 19.717 10.4034 19.7079C4.62423 19.7126 0 15.2586 0 9.90137C0 4.46027 4.62423 0.089863 10.406 0.089863ZM74.1161 0L73.179 4.55973C73.0064 4.54164 72.8331 4.53233 72.6592 4.53178C69.9348 4.53781 68.3682 6.12959 68.3759 9.1874L68.4035 19.3532L63.325 19.3641L63.282 0.497808L68.3605 0.486849V2.6726C69.5434 0.89726 71.4649 0.0205479 74.1161 0ZM125.15 0.0134247L124.208 4.56822C124.036 4.55088 123.862 4.54155 123.688 4.54027C120.966 4.54027 119.396 6.12849 119.396 9.1874V19.3545H114.317V0.485753H119.396V2.67123C120.584 0.899452 122.503 0.0268493 125.15 0.0134247ZM30.5729 4.81699C27.6001 4.81699 25.1637 7.20055 25.1637 9.90137C25.1637 12.6419 27.6001 15.0255 30.5729 15.0255C33.5926 15.0255 36.024 12.6419 36.024 9.90137C36.024 7.20082 33.5875 4.81699 30.5729 4.81699ZM135.512 4.8189C134.072 4.8242 132.693 5.37943 131.679 6.36247C131.177 6.84907 130.779 7.4261 130.509 8.06059C130.239 8.69508 130.101 9.37458 130.104 10.0603C130.104 12.6822 132.54 15.0255 135.514 15.0255C138.525 15.0255 140.96 12.6819 140.96 10.0203C140.955 8.63557 140.378 7.30972 139.356 6.33431C138.334 5.3589 136.951 4.81381 135.512 4.8189M102.362 4.57918C100.008 4.57918 98.1065 5.92219 97.3591 7.9463L107.145 7.96329C106.86 6.05671 104.798 4.58247 102.362 4.57918Z" fill="#0056D2"/>
</g>
<defs>
<clipPath id="clip0_40_2">
<rect width="145.833" height="20" fill="white"/>
</clipPath>
</defs>
</svg>
