<svg width="48" height="48" viewBox="0 0 48 48" fill="none" xmlns="http://www.w3.org/2000/svg">
<path d="M26.38 17.376C27.6797 17.9966 28.8115 18.9199 29.6803 20.0685C30.5491 21.2171 31.1295 22.5575 31.3729 23.977C31.6163 25.3964 31.5154 26.8536 31.0789 28.226C30.6423 29.5984 29.8828 30.846 28.864 31.864L19.864 40.864C18.1762 42.5519 15.887 43.5001 13.5001 43.5001C11.1131 43.5001 8.82389 42.5519 7.13605 40.864C5.44822 39.1762 4.5 36.887 4.5 34.5C4.5 32.1131 5.44822 29.8239 7.13605 28.136L10.6501 24.622M37.35 23.378L40.864 19.864C42.5519 18.1762 43.5001 15.887 43.5001 13.5001C43.5001 11.1131 42.5519 8.82389 40.864 7.13605C39.1762 5.44822 36.887 4.5 34.5 4.5C32.1131 4.5 29.8239 5.44822 28.136 7.13605L19.136 16.1361C18.1173 17.1541 17.3578 18.4017 16.9212 19.7741C16.4847 21.1465 16.3838 22.6037 16.6272 24.0231C16.8706 25.4426 17.451 26.783 18.3198 27.9316C19.1886 29.0802 20.3204 30.0035 21.62 30.624" stroke="#5A8261" stroke-width="3" stroke-linecap="round" stroke-linejoin="round"/>
</svg>
