<svg width="64" height="20" viewBox="0 0 64 20" fill="none" xmlns="http://www.w3.org/2000/svg">
<g clip-path="url(#clip0_40_4)">
<path d="M9.95687 0C4.458 0 0 4.45787 0 9.95675C0 15.4559 4.458 19.9134 9.95687 19.9134C15.4564 19.9134 19.9139 15.4559 19.9139 9.95675C19.9139 4.45825 15.4564 0.0005 9.95675 0.0005L9.95687 0ZM14.5231 14.3605C14.4806 14.4301 14.4248 14.4907 14.3589 14.5387C14.293 14.5868 14.2182 14.6213 14.1389 14.6404C14.0596 14.6595 13.9773 14.6628 13.8968 14.6501C13.8162 14.6374 13.7389 14.6089 13.6694 14.5662C11.3316 13.1382 8.38862 12.8149 4.92275 13.6067C4.76227 13.6432 4.59386 13.6145 4.45453 13.5269C4.31521 13.4393 4.21637 13.3 4.17975 13.1395C4.16153 13.0601 4.15916 12.9778 4.17276 12.8974C4.18637 12.8171 4.21568 12.7402 4.25904 12.6712C4.30239 12.6021 4.35892 12.5423 4.42541 12.4952C4.49189 12.448 4.56702 12.4145 4.6465 12.3964C8.43938 11.5297 11.6928 11.9029 14.3174 13.5069C14.387 13.5494 14.4475 13.6052 14.4955 13.6712C14.5435 13.7371 14.578 13.8118 14.5971 13.8911C14.6162 13.9704 14.6195 14.0527 14.6068 14.1333C14.5941 14.2138 14.5656 14.2911 14.523 14.3606M15.7417 11.6495C15.5169 12.0147 15.039 12.1301 14.6739 11.9054C11.9976 10.2604 7.91775 9.78387 4.75212 10.7449C4.55507 10.8045 4.34242 10.7835 4.16081 10.6865C3.9792 10.5896 3.84347 10.4245 3.78338 10.2276C3.72397 10.0306 3.7451 9.81807 3.84213 9.6366C3.93916 9.45513 4.10417 9.31952 4.301 9.2595C7.91713 8.16225 12.4125 8.69375 15.486 10.5824C15.851 10.8071 15.9664 11.2851 15.7416 11.6496M15.8461 8.8265C12.6375 6.92025 7.34275 6.745 4.27887 7.675C3.78687 7.82425 3.26663 7.5465 3.11762 7.0545C3.04594 6.81814 3.07105 6.56299 3.18743 6.34514C3.30381 6.12729 3.50193 5.96457 3.73825 5.89275C7.25537 4.825 13.1023 5.03125 16.7969 7.22463C16.9022 7.28691 16.9942 7.36935 17.0676 7.46724C17.1409 7.56513 17.1943 7.67654 17.2246 7.79509C17.2548 7.91364 17.2614 8.03699 17.2439 8.15808C17.2264 8.27917 17.1852 8.39561 17.1226 8.50075C16.8611 8.94325 16.288 9.08913 15.8469 8.82638L15.8461 8.8265ZM27.0891 9.19175C25.3699 8.78175 25.0644 8.49413 25.0644 7.8895C25.0644 7.31825 25.6017 6.93388 26.4019 6.93388C27.1771 6.93388 27.9453 7.22587 28.7514 7.82675C28.7751 7.84487 28.806 7.85212 28.8358 7.84737C28.8507 7.84515 28.865 7.83995 28.8779 7.83207C28.8908 7.82419 28.902 7.81379 28.9107 7.8015L29.7501 6.61825C29.7667 6.5948 29.7737 6.5659 29.7698 6.53745C29.7658 6.509 29.7511 6.48314 29.7288 6.46513C28.7693 5.6955 27.6896 5.32137 26.4269 5.32137C24.5709 5.32137 23.2738 6.43525 23.2738 8.02913C23.2738 9.73825 24.3925 10.3435 26.3259 10.8106C27.9702 11.1895 28.2484 11.5069 28.2484 12.0744C28.2484 12.7034 27.6871 13.0945 26.7836 13.0945C25.7801 13.0945 24.9609 12.7557 24.0454 11.9637C24.0226 11.9445 23.9932 11.9347 23.9634 11.9365C23.9485 11.9376 23.934 11.9416 23.9208 11.9483C23.9075 11.955 23.8957 11.9643 23.886 11.9756L22.9444 13.0956C22.9255 13.1181 22.916 13.147 22.918 13.1763C22.92 13.2056 22.9333 13.233 22.9551 13.2526C24.0204 14.2039 25.3306 14.7056 26.7455 14.7056C28.7455 14.7056 30.0379 13.6129 30.0379 11.921C30.0414 10.4934 29.1866 9.70275 27.0928 9.19337L27.0891 9.19175ZM34.5631 7.49625C33.6964 7.49625 32.9854 7.83775 32.398 8.5375V7.75C32.398 7.68775 32.348 7.63713 32.2863 7.63713H30.7465C30.7167 7.63732 30.6883 7.6493 30.6673 7.67043C30.6464 7.69156 30.6347 7.72012 30.6348 7.74988V16.501C30.6348 16.5627 30.6848 16.6139 30.7465 16.6139H32.2863C32.316 16.6137 32.3445 16.6017 32.3654 16.5805C32.3864 16.5594 32.3981 16.5308 32.398 16.501V13.7389C32.9854 14.3964 33.6964 14.7186 34.563 14.7186C36.1742 14.7186 37.8055 13.4786 37.8055 11.1079C37.8079 8.73662 36.1765 7.49613 34.5643 7.49613L34.5631 7.49625ZM36.0149 11.1079C36.0149 12.3145 35.2718 13.1575 34.2064 13.1575C33.1541 13.1575 32.3599 12.2765 32.3599 11.1079C32.3599 9.93912 33.1541 9.05825 34.2064 9.05825C35.2539 9.05825 36.0149 9.92 36.0149 11.1079ZM41.9847 7.49613C39.91 7.49613 38.2846 9.09363 38.2846 11.1336C38.2846 13.1515 39.8993 14.7316 41.9598 14.7316C44.0416 14.7316 45.6717 13.1396 45.6717 11.1077C45.6717 9.08275 44.0524 7.4965 41.9847 7.4965V7.49613ZM41.9847 13.1692C40.8814 13.1692 40.0491 12.2823 40.0491 11.1071C40.0491 9.92663 40.8529 9.06987 41.9598 9.06987C43.0703 9.06987 43.9072 9.9565 43.9072 11.1329C43.9072 12.3133 43.0987 13.1692 41.9847 13.1692ZM50.1019 7.637H48.4076V5.905C48.4076 5.84288 48.3576 5.79225 48.2959 5.79225H46.7562C46.7263 5.79232 46.6977 5.80421 46.6765 5.82533C46.6553 5.84645 46.6434 5.87509 46.6432 5.905V7.63688H45.9038C45.874 7.63707 45.8455 7.64905 45.8246 7.67018C45.8037 7.69131 45.7919 7.71987 45.792 7.74963V9.07263C45.7919 9.1024 45.8036 9.131 45.8246 9.15215C45.8455 9.17331 45.874 9.1853 45.9038 9.1855H46.6432V12.6093C46.6432 13.992 47.3318 14.6935 48.6908 14.6935C49.2424 14.6935 49.7001 14.5793 50.1317 14.3344C50.1492 14.3248 50.1637 14.3107 50.1738 14.2935C50.1838 14.2764 50.1891 14.2568 50.1889 14.2369V12.9765C50.1887 12.9574 50.1838 12.9387 50.1744 12.9221C50.165 12.9055 50.1516 12.8915 50.1354 12.8815C50.1192 12.8711 50.1005 12.8651 50.0813 12.8643C50.062 12.8634 50.0429 12.8677 50.0259 12.8766C49.7299 13.0254 49.4434 13.0942 49.1222 13.0942C48.6289 13.0942 48.4077 12.8695 48.4077 12.3678V9.18625H50.102C50.1318 9.18605 50.1603 9.17406 50.1812 9.1529C50.2021 9.13175 50.2138 9.10315 50.2137 9.07337V7.75037C50.2143 7.73562 50.2118 7.72091 50.2064 7.70714C50.2011 7.69337 50.193 7.68083 50.1827 7.67028C50.1723 7.65972 50.16 7.65138 50.1463 7.64574C50.1327 7.64011 50.118 7.6373 50.1032 7.6375L50.1019 7.637ZM56.004 7.64375V7.431C56.004 6.80525 56.2441 6.52625 56.7815 6.52625C57.1028 6.52625 57.3606 6.59 57.6496 6.68625C57.6665 6.69194 57.6846 6.69349 57.7022 6.69078C57.7199 6.68807 57.7366 6.68118 57.751 6.67068C57.7655 6.66019 57.7772 6.64639 57.7852 6.63044C57.7932 6.61449 57.7973 6.59685 57.7971 6.579L57.797 5.28188C57.7973 5.25764 57.7897 5.23396 57.7753 5.21444C57.761 5.19493 57.7406 5.18064 57.7174 5.17375C57.413 5.083 57.023 4.99 56.438 4.99C55.0171 4.99 54.2645 5.79063 54.2645 7.3045V7.63025H53.525C53.4951 7.63032 53.4664 7.64221 53.4453 7.66333C53.4241 7.68445 53.4121 7.71309 53.412 7.743V9.07275C53.412 9.13488 53.4633 9.18563 53.525 9.18563H54.2645V14.4653C54.2645 14.5283 54.3157 14.5782 54.3775 14.5782H55.916C55.979 14.5782 56.029 14.5283 56.029 14.4653V9.18587H57.4665L59.6685 14.4651C59.4187 15.0193 59.1726 15.1298 58.8372 15.1298C58.5662 15.1298 58.2797 15.049 57.9885 14.8885C57.9609 14.8745 57.929 14.8715 57.8993 14.8801C57.8846 14.8851 57.8711 14.893 57.8596 14.9035C57.8481 14.9139 57.839 14.9266 57.8326 14.9408L57.3107 16.0858C57.2987 16.1118 57.2971 16.1414 57.3061 16.1685C57.3152 16.1957 57.3343 16.2184 57.3595 16.232C57.904 16.5269 58.395 16.6529 59.0026 16.6529C60.1392 16.6529 60.7683 16.1226 61.3211 14.6982L63.9916 7.79775C63.9986 7.78069 64.0011 7.76216 63.9991 7.74386C63.997 7.72556 63.9903 7.70807 63.9798 7.693C63.9697 7.67792 63.9561 7.66555 63.9401 7.657C63.9241 7.64845 63.9063 7.64399 63.8881 7.644H62.2854C62.2619 7.64385 62.2389 7.65106 62.2197 7.66463C62.2005 7.67819 62.1861 7.69742 62.1784 7.71962L60.5364 12.4082L58.7386 7.7165C58.7305 7.69526 58.7162 7.67697 58.6976 7.66403C58.6789 7.65109 58.6567 7.64411 58.634 7.644H56.004V7.64375ZM52.5821 7.637H51.0424C51.0125 7.63713 50.9839 7.64905 50.9627 7.67016C50.9416 7.69127 50.9297 7.71988 50.9295 7.74975V14.4653C50.9295 14.5283 50.9806 14.5782 51.0424 14.5782H52.5821C52.644 14.5782 52.6951 14.5283 52.6951 14.4653V7.75025C52.6952 7.7354 52.6923 7.72069 52.6866 7.70697C52.681 7.69324 52.6726 7.68077 52.6621 7.67028C52.6516 7.65979 52.6391 7.65148 52.6254 7.64583C52.6117 7.64018 52.597 7.63731 52.5821 7.63737V7.637ZM51.8211 4.579C51.2111 4.579 50.7166 5.07275 50.7166 5.6825C50.7166 5.82755 50.7452 5.97118 50.8007 6.10519C50.8562 6.2392 50.9375 6.36097 51.0401 6.46354C51.1427 6.5661 51.2644 6.64746 51.3984 6.70296C51.5324 6.75846 51.6761 6.78702 51.8211 6.787C52.4311 6.787 52.9245 6.29275 52.9245 5.6825C52.9244 5.38988 52.8082 5.10925 52.6013 4.90233C52.3944 4.6954 52.1137 4.5791 51.8211 4.579Z" fill="#1ED760"/>
</g>
<defs>
<clipPath id="clip0_40_4">
<rect width="64" height="20" fill="white"/>
</clipPath>
</defs>
</svg>
