<svg width="25" height="20" viewBox="0 0 25 20" fill="none" xmlns="http://www.w3.org/2000/svg">
<g clip-path="url(#clip0_18_167)">
<path d="M24.6377 2.43536C23.7151 2.8418 22.7365 3.10856 21.7345 3.22675C22.7782 2.60474 23.5796 1.61976 23.957 0.446173C22.9648 1.03158 21.8792 1.44406 20.7472 1.66579C19.8252 0.689044 18.5116 0.0786133 17.0576 0.0786133C14.2661 0.0786133 12.0028 2.32895 12.0028 5.10445C12.0028 5.49842 12.0475 5.88196 12.1337 6.24991C7.93276 6.04024 4.20823 4.03938 1.71511 0.998613C1.2801 1.74091 1.03084 2.60436 1.03084 3.52531C1.03084 5.26904 1.92328 6.80732 3.27951 7.70866C2.4768 7.68371 1.69175 7.46814 0.989934 7.07995C0.989678 7.10101 0.989581 7.12209 0.989646 7.14321C0.989646 9.57833 2.73199 11.6097 5.04428 12.0714C4.29993 12.2727 3.51918 12.3022 2.76163 12.1576C3.40481 14.1543 5.2716 15.6073 7.48341 15.648C5.75348 16.9959 3.57391 17.7995 1.2058 17.7995C0.797741 17.7995 0.395454 17.7756 0 17.7292C2.23693 19.1553 4.89385 19.9873 7.74836 19.9873C17.0459 19.9873 22.13 12.3289 22.13 5.68732C22.13 5.46933 22.1252 5.25259 22.1154 5.03708C23.1049 4.3257 23.959 3.44469 24.6377 2.43536Z" fill="#55ACEE"/>
</g>
<defs>
<clipPath id="clip0_18_167">
<rect width="24.6377" height="20" fill="white"/>
</clipPath>
</defs>
</svg>
