<svg width="54" height="20" viewBox="0 0 54 20" fill="none" xmlns="http://www.w3.org/2000/svg">
<g clip-path="url(#clip0_22_222)">
<path d="M8.24238 4.75886L4.12062 2.37948L0 4.75886V2.37948L4.12124 0L8.24301 2.37948V4.75886H8.24238Z" fill="#A435F0"/>
<path d="M0 6.75917H2.15886V12.0043C2.15886 13.3596 3.17088 14.0201 4.12124 14.0201C5.07979 14.0201 6.08415 13.342 6.08415 11.9862V6.75927H8.24301V12.1293C8.24301 13.3777 7.85047 14.341 7.0656 15.0016C6.2801 15.6617 5.29917 15.983 4.10301 15.983C2.90798 15.983 1.92653 15.6622 1.15979 15.0017C0.392435 14.3414 0 13.414 0 12.1826V6.75917ZM26.9071 13.278C26.2537 13.86 25.5092 14.1451 24.6603 14.1451C23.1116 14.1451 22.0732 13.2628 21.9559 11.8964H28.9311C28.9311 11.8964 28.978 11.4553 28.978 11.0411C28.978 9.75637 28.5674 8.6857 27.7285 7.8116C26.9084 6.93751 25.8383 6.50922 24.5353 6.50922C23.162 6.50922 22.0374 6.93751 21.1451 7.8116C20.271 8.6857 19.8252 9.82735 19.8252 11.2552V11.3257C19.8252 12.7353 20.271 13.8594 21.1451 14.6982C22.0193 15.5366 23.1791 15.9649 24.5887 15.9649C26.2279 15.9649 27.5319 15.3183 28.5105 14.2037L26.9071 13.278ZM22.8041 8.89979C23.2852 8.52497 23.8748 8.32901 24.5347 8.32901C25.159 8.32901 25.6764 8.52497 26.1228 8.91803C26.5487 9.27585 26.7788 9.71533 26.7987 10.2204H22.0111C22.0802 9.69823 22.3442 9.25834 22.8048 8.90041L22.8041 8.89979ZM48.639 17.1769C47.7631 19.2448 46.8467 19.9482 45.4418 19.9482H44.4679V18.0345H45.2551C45.7386 18.0345 46.188 17.8526 46.6162 16.8648L47.0445 15.8756L43.3509 6.75917H45.5456L48.1684 13.325L50.8629 6.75917H53.057L48.6396 17.1768L48.639 17.1769ZM16.6473 3.31616V7.57347C15.9398 6.93989 14.8393 6.56269 13.775 6.56269C12.5079 6.56269 11.4378 7.00849 10.5637 7.91782C9.70725 8.81005 9.27896 9.91595 9.27896 11.2541C9.27896 12.5928 9.70725 13.6986 10.5637 14.6085C11.4378 15.5007 12.5085 15.9472 13.7751 15.9472C15.2359 15.9472 16.1592 15.3729 16.6473 14.923V15.7508H18.7886V3.31668H16.6473V3.31616ZM16.0049 13.2176C15.4875 13.735 14.8276 14.0031 14.0602 14.0031C13.2928 14.0031 12.6687 13.735 12.1512 13.2176C11.6525 12.7002 11.4021 12.0402 11.4021 11.2552C11.4021 10.4697 11.652 9.80974 12.1513 9.29233C12.6687 8.77492 13.2928 8.50735 14.0601 8.50735C14.8276 8.50735 15.4875 8.77492 16.0049 9.29233C16.5399 9.80974 16.8086 10.4697 16.8086 11.2552C16.8086 12.0402 16.5399 12.7002 16.0049 13.2176ZM40.0223 6.58083C38.3961 6.58083 37.5508 7.25544 36.9717 7.90549C36.74 7.46373 36.0877 6.58083 34.5634 6.58083C33.2752 6.58083 32.5162 7.23202 32.1371 7.69544V6.76031H30.0146V15.7519H32.1371V10.5777C32.1371 9.36445 32.8868 8.49036 33.8853 8.49036C34.9032 8.49036 35.4915 9.25772 35.4915 10.4885V15.7513H37.6147V10.5771C37.6147 9.34632 38.3456 8.48984 39.3981 8.48984C40.4153 8.48984 41.0037 9.25709 41.0037 10.4874V15.7508H43.145V10.1846C43.145 7.84031 41.8849 6.58134 40.0223 6.58134V6.58083Z" fill="black"/>
</g>
<defs>
<clipPath id="clip0_22_222">
<rect width="53.057" height="20" fill="white"/>
</clipPath>
</defs>
</svg>
