<svg width="89" height="20" viewBox="0 0 89 20" fill="none" xmlns="http://www.w3.org/2000/svg">
<g clip-path="url(#clip0_18_147)">
<path d="M27.5852 3.09138C27.4234 2.49381 27.1077 1.94903 26.6697 1.51131C26.2317 1.07358 25.6865 0.758192 25.0885 0.596552C22.8994 0 14.0895 0 14.0895 0C14.0895 0 5.27928 0.0181035 3.09044 0.614655C2.4925 0.776321 1.94738 1.09172 1.50937 1.52945C1.07137 1.96717 0.75576 2.51193 0.593988 3.10948C-0.0681667 6.99655 -0.325058 12.9191 0.612103 16.6505C0.773875 17.2481 1.08948 17.7928 1.52749 18.2306C1.9655 18.6683 2.51062 18.9837 3.10855 19.1453C5.29756 19.7419 14.1076 19.7419 14.1076 19.7419C14.1076 19.7419 22.9177 19.7419 25.1067 19.1453C25.7046 18.9837 26.2497 18.6683 26.6877 18.2306C27.1257 17.7928 27.4413 17.2481 27.6031 16.6505C28.3013 12.7581 28.5166 6.83914 27.585 3.09155" fill="#FF0000"/>
<path d="M11.2854 14.1015L18.594 9.87114L11.2854 5.64062V14.1015Z" fill="white"/>
<path d="M84.7512 5.73097C85.7099 5.73097 86.4335 5.91165 86.94 6.2551C87.4465 6.59867 87.8084 7.14108 88.0255 7.88234C88.2426 8.62355 88.333 9.63579 88.333 10.9375V13.0529H83.6837V13.7036L83.7562 15.4934C83.8104 15.8911 83.901 16.1804 84.0455 16.3611C84.1905 16.542 84.4254 16.6323 84.733 16.6323C85.1492 16.6323 85.4387 16.4698 85.5832 16.1444C85.7461 15.8189 85.8184 15.2765 85.8365 14.5353L88.2426 14.6799C88.2607 14.7884 88.2607 14.933 88.2607 15.1137C88.2607 16.2527 87.9531 17.1025 87.3199 17.6629C86.6867 18.2232 85.8184 18.5125 84.6787 18.5125C83.3038 18.5125 82.3451 18.0787 81.8023 17.2291C81.2598 16.3792 80.9703 15.0413 80.9703 13.2517V11.0641C81.0317 7.99079 81.5725 5.73993 84.7512 5.73097ZM51.3018 5.96596V15.0234C51.3018 15.5658 51.356 15.9636 51.4826 16.1986C51.7395 16.7011 52.4053 16.5727 52.7671 16.3251C52.9759 16.184 53.1442 15.9908 53.2555 15.7648V5.96579H56.0233V18.3136H53.8524L53.6173 16.7949H53.5631C52.9662 17.9339 52.0796 18.5123 50.9038 18.5123C49.094 18.5079 48.6511 17.2048 48.5457 15.8813L48.5388 15.788C48.5258 15.5876 48.5181 15.3868 48.5159 15.186V5.96596H51.3018ZM65.5752 5.96596V15.0234C65.5752 15.5658 65.6294 15.9636 65.756 16.1986C66.0131 16.7011 66.6787 16.5727 67.0405 16.3251C67.2493 16.184 67.4177 15.9908 67.5289 15.7648V5.96579H70.2968V18.3136H68.1259L67.8907 16.7949H67.8365C67.2396 17.9339 66.353 18.5123 65.1772 18.5123C63.3674 18.5079 62.9246 17.2048 62.8191 15.8813L62.8122 15.788C62.7992 15.5876 62.7915 15.3868 62.7893 15.186V5.96596H65.5752ZM43.2695 5.73097C44.1741 5.73097 44.9158 5.91165 45.4585 6.29131C46.0011 6.67097 46.4173 7.24959 46.6705 8.04493C46.9238 8.84045 47.0504 9.907 47.0504 11.2268V13.0165C47.0504 14.3363 46.9238 15.3849 46.6705 16.1803C46.4173 16.976 46.0192 17.5544 45.4585 17.9341C44.8978 18.2956 44.1378 18.4944 43.1972 18.4944C42.2202 18.5125 41.4604 18.3137 40.8997 17.9522C40.339 17.5725 39.9408 16.9939 39.7058 16.1986C39.4705 15.403 39.362 14.3544 39.362 13.0348V11.2448C39.362 9.92493 39.4886 8.84027 39.76 8.04476C40.0314 7.23131 40.4473 6.65269 41.0263 6.29131C41.6052 5.92959 42.3469 5.73079 43.2695 5.73079M74.6385 0.777344V7.28562H74.6567C74.9099 6.81562 75.2355 6.43597 75.6879 6.14665C76.1103 5.86296 76.6079 5.7119 77.1169 5.71286C77.7863 5.71286 78.2928 5.89355 78.6727 6.237C79.0526 6.59872 79.324 7.15907 79.4867 7.93648C79.6446 8.68959 79.7343 9.73114 79.7398 11.0446L79.74 11.1727V13.1251C79.74 14.951 79.5048 16.307 79.0706 17.1748C78.6186 18.0425 77.931 18.4765 76.9902 18.4765C76.4658 18.4765 75.9953 18.3499 75.5612 18.1149C75.1774 17.8912 74.8591 17.5706 74.6382 17.1853L74.6023 17.1204H74.5481L74.2586 18.2956H71.9611V0.777516L74.6385 0.777344ZM63.567 1.4101V3.65165H60.8173V18.3136H58.1038V3.65183H55.336V1.41027L63.567 1.4101ZM33.7357 1.4101L33.7375 1.417C33.7639 1.53441 34.1296 3.15941 34.5319 5.05269L34.5637 5.20269L34.6117 5.42941L34.6437 5.58165L34.6598 5.65803L34.6919 5.81114L34.7079 5.88786L34.7398 6.04148L34.7864 6.26614C35.0582 7.57717 35.3175 8.892 35.4726 9.83476H35.545C35.6936 8.98907 35.9094 7.90683 36.1395 6.80183L36.1999 6.51321C36.2302 6.36861 36.2607 6.22424 36.2914 6.0801L36.3386 5.85648C36.6512 4.39214 36.973 2.92981 37.3043 1.46959L37.3094 1.44631L37.3177 1.4101H40.0856L36.8835 12.8179V18.2956H34.1519V12.8358H34.1338L30.9679 1.40993L33.7357 1.4101ZM43.2152 7.64717C42.8353 7.64717 42.582 7.84614 42.4193 8.262C42.2566 8.67786 42.1842 9.31045 42.1842 10.1965V14.0472C42.1842 14.9511 42.2565 15.6199 42.4012 16.0179C42.546 16.4156 42.8173 16.6144 43.2152 16.6144C43.5951 16.6144 43.8665 16.4156 44.0293 16.0179C44.1922 15.6199 44.2645 14.9511 44.2645 14.0472V10.1963C44.2645 9.31045 44.192 8.65958 44.0293 8.26183C43.8665 7.84614 43.5951 7.64717 43.2152 7.64717ZM75.127 8.0089C74.9065 8.21234 74.7497 8.46321 74.6563 8.77683L74.6385 8.84045V15.8549C74.8628 16.2346 75.1813 16.4877 75.742 16.5058C76.0314 16.5058 76.2666 16.3973 76.4477 16.1804C76.6285 15.9636 76.755 15.6019 76.8274 15.0956C76.897 14.6098 76.9331 13.9406 76.9359 13.088V11.3715C76.9359 10.3953 76.8997 9.65407 76.8455 9.12976C76.773 8.60545 76.6828 8.22579 76.5199 8.0089C76.2051 7.55683 75.525 7.56234 75.127 8.0089ZM84.697 7.59303C84.3893 7.61108 84.1722 7.70148 84.0455 7.86424C83.901 8.04493 83.8104 8.31614 83.7562 8.7139C83.7029 9.10355 83.6846 10.4656 83.6837 10.5201V11.4077H85.7099V10.6249V10.6399C85.7087 10.9136 85.703 10.4811 85.6906 9.95028L85.6888 9.8789C85.6774 9.41234 85.6609 8.89217 85.6376 8.7139C85.5833 8.29803 85.4927 8.00872 85.3481 7.84614C85.2034 7.68338 84.9863 7.59303 84.6968 7.59303" fill="#282828"/>
</g>
<defs>
<clipPath id="clip0_18_147">
<rect width="88.3333" height="20" fill="white"/>
</clipPath>
</defs>
</svg>
