<svg width="37" height="57" viewBox="0 0 37 57" fill="none" xmlns="http://www.w3.org/2000/svg">
<path d="M34.4 0.23999C35.7866 0.293326 36.4533 0.879993 36.4 1.99999C36.2933 3.17333 35.6266 3.86666 34.4 4.07999L4.23996 3.99999L4.63996 26.24L30.64 26.16C31.9733 26.32 32.64 26.9333 32.64 28C32.64 29.0667 31.9733 29.68 30.64 29.84L4.55996 30L4.31996 52.24L31.68 52.4C32.9066 52.72 33.52 53.3333 33.52 54.24C33.52 55.2533 32.8533 55.92 31.52 56.24C22.4 56.1867 15.44 56.16 10.64 56.16C5.83996 56.16 3.19996 56.1333 2.71996 56.08C1.59996 56.08 1.01329 55.4133 0.959961 54.08C1.01329 53.2267 1.06663 51.5467 1.11996 49.04C1.17329 46.5333 1.22663 43.2533 1.27996 39.2C1.33329 30.9867 1.25329 19.3067 1.03996 4.15999C0.773294 2.02666 1.19996 0.746658 2.31996 0.319994L34.4 0.23999Z" fill="#374F3B"/>
</svg>
